<?xml version="1.0" encoding="utf-8"?><svg xmlns="http://www.w3.org/2000/svg" xmlns:xlink="http://www.w3.org/1999/xlink"><symbol viewBox="0 0 26 81" id="arrow-left" xmlns="http://www.w3.org/2000/svg"><path d="M22.222 80.673a3.19 3.19 0 0 0 1.424-.336 3.2 3.2 0 0 0 1.447-4.293L7.506 40.662 25.093 5.277A3.2 3.2 0 0 0 23.646.984a3.207 3.207 0 0 0-4.3 1.446L.341 40.662l19.003 38.23a3.211 3.211 0 0 0 2.877 1.78z"/></symbol><symbol viewBox="0 0 26 81" id="arrow-right" xmlns="http://www.w3.org/2000/svg"><path d="M3.778 80.673a3.19 3.19 0 0 1-1.424-.336 3.2 3.2 0 0 1-1.447-4.293l17.587-35.382L.907 5.277A3.2 3.2 0 0 1 2.354.984a3.207 3.207 0 0 1 4.3 1.446l19.004 38.232-19.004 38.23a3.211 3.211 0 0 1-2.876 1.78z"/></symbol><symbol viewBox="0 0 20 16" id="check" xmlns="http://www.w3.org/2000/svg"><path d="M.418 9.154l2.125 2.104 2.129 2.105 2.127 2.104a1.522 1.522 0 0 0 2.124.002l.005-.002 2.125-2.104 2.129-2.105 2.127-2.104c.196-.194.436-.43.687-.68l1.263-1.249c.061-.06.123-.12.178-.176l2.126-2.102a1.483 1.483 0 0 0 0-2.106L17.437.74a1.522 1.522 0 0 0-2.128 0l-2.127 2.1-.141.14-1.314 1.3-.283.28-.391.386-2.125 2.102-.003.003a1.523 1.523 0 0 1-2.126-.003L4.672 4.947a1.522 1.522 0 0 0-2.129 0l-.752.744L.418 7.049a1.48 1.48 0 0 0 0 2.105z"/></symbol><symbol class="dsvg-inline--fa dfa-chevron-right dfa-w-10" viewBox="0 0 320 512" id="chevron-right" xmlns="http://www.w3.org/2000/svg"><path d="M285.476 272.971L91.132 467.314c-9.373 9.373-24.569 9.373-33.941 0l-22.667-22.667c-9.357-9.357-9.375-24.522-.04-33.901L188.505 256 34.484 101.255c-9.335-9.379-9.317-24.544.04-33.901l22.667-22.667c9.373-9.373 24.569-9.373 33.941 0L285.475 239.03c9.373 9.372 9.373 24.568.001 33.941z"/></symbol><symbol class="esvg-inline--fa efa-facebook-f efa-w-10" viewBox="0 0 320 512" id="fb" xmlns="http://www.w3.org/2000/svg"><path d="M279.14 288l14.22-92.66h-88.91v-60.13c0-25.35 12.42-50.06 52.24-50.06h40.42V6.26S260.43 0 225.36 0c-73.22 0-121.08 44.38-121.08 124.72v70.62H22.89V288h81.39v224h100.17V288z"/></symbol><symbol class="fsvg-inline--fa ffa-map-marker-alt ffa-w-12" viewBox="0 0 384 512" id="mark" xmlns="http://www.w3.org/2000/svg"><path d="M172.268 501.67C26.97 291.031 0 269.413 0 192 0 85.961 85.961 0 192 0s192 85.961 192 192c0 77.413-26.97 99.031-172.268 309.67-9.535 13.774-29.93 13.773-39.464 0zM192 272c44.183 0 80-35.817 80-80s-35.817-80-80-80-80 35.817-80 80 35.817 80 80 80z"/></symbol><symbol class="gsvg-inline--fa gfa-phone-alt gfa-w-16" viewBox="0 0 512 512" id="phone-alt-solid" xmlns="http://www.w3.org/2000/svg"><path d="M497.39 361.8l-112-48a24 24 0 0 0-28 6.9l-49.6 60.6A370.66 370.66 0 0 1 130.6 204.11l60.6-49.6a23.94 23.94 0 0 0 6.9-28l-48-112A24.16 24.16 0 0 0 122.6.61l-104 24A24 24 0 0 0 0 48c0 256.5 207.9 464 464 464a24 24 0 0 0 23.4-18.6l24-104a24.29 24.29 0 0 0-14.01-27.6z"/></symbol><symbol class="hsvg-inline--fa hfa-search hfa-w-16" viewBox="0 0 512 512" id="search" xmlns="http://www.w3.org/2000/svg"><path d="M505 442.7L405.3 343c-4.5-4.5-10.6-7-17-7H372c27.6-35.3 44-79.7 44-128C416 93.1 322.9 0 208 0S0 93.1 0 208s93.1 208 208 208c48.3 0 92.7-16.4 128-44v16.3c0 6.4 2.5 12.5 7 17l99.7 99.7c9.4 9.4 24.6 9.4 33.9 0l28.3-28.3c9.4-9.4 9.4-24.6.1-34zM208 336c-70.7 0-128-57.2-128-128 0-70.7 57.2-128 128-128 70.7 0 128 57.2 128 128 0 70.7-57.2 128-128 128z"/></symbol><symbol class="isvg-inline--fa ifa-vk ifa-w-18" viewBox="0 0 576 512" id="vk" xmlns="http://www.w3.org/2000/svg"><path d="M545 117.7c3.7-12.5 0-21.7-17.8-21.7h-58.9c-15 0-21.9 7.9-25.6 16.7 0 0-30 73.1-72.4 120.5-13.7 13.7-20 18.1-27.5 18.1-3.7 0-9.4-4.4-9.4-16.9V117.7c0-15-4.2-21.7-16.6-21.7h-92.6c-9.4 0-15 7-15 13.5 0 14.2 21.2 17.5 23.4 57.5v86.8c0 19-3.4 22.5-10.9 22.5-20 0-68.6-73.4-97.4-157.4-5.8-16.3-11.5-22.9-26.6-22.9H38.8c-16.8 0-20.2 7.9-20.2 16.7 0 15.6 20 93.1 93.1 195.5C160.4 378.1 229 416 291.4 416c37.5 0 42.1-8.4 42.1-22.9 0-66.8-3.4-73.1 15.4-73.1 8.7 0 23.7 4.4 58.7 38.1 40 40 46.6 57.9 69 57.9h58.9c16.8 0 25.3-8.4 20.4-25-11.2-34.9-86.9-106.7-90.3-111.5-8.7-11.2-6.2-16.2 0-26.2.1-.1 72-101.3 79.4-135.6z"/></symbol></svg>