<svg xmlns="http://www.w3.org/2000/svg" viewBox="0 0 83.99 78.83"><title>flash</title><g id="Слой_2" data-name="Слой 2"><g id="Layer_1" data-name="Layer 1"><path d="M46.13,32.09C53,33,59.51,33.81,66,34.8a3.17,3.17,0,0,1,2.19,1.86A3.11,3.11,0,0,1,67,39.19c-6.34,4.55-12.84,8.88-19.14,13.46C43,56.15,38.4,59.88,33.75,63.57,27.86,68.25,22,73,16.17,77.7c-2.31,1.84-4.2,1.41-5.12-1.15a2.23,2.23,0,0,1,.2-1.83C17.3,67.12,23.42,59.56,29.51,52c2-2.51,4-5,6.55-8.19H16.22c-2-4.42-2-4.43,1.18-6.8,4.76-3.59,9.35-7.42,14.2-10.89,8.91-6.38,17.86-12.7,27-18.76,2.86-1.9,6.3-2.95,9.56-4.18a2.58,2.58,0,0,1,2.42.69,2.86,2.86,0,0,1-.36,2.61c-3.47,4.1-7,8.2-10.68,12.07-4,4.16-8.26,8.07-12.39,12.11A10.2,10.2,0,0,0,46.13,32.09ZM27.32,62.2l.52.55L60.13,38.56a32.29,32.29,0,0,0-15.27-2.08,67.51,67.51,0,0,1-8.29.07c-.48-2.54-.36-2.4,1.93-4.36q9.78-8.37,19.35-17a30,30,0,0,0,3.28-4.11C54.18,14.19,23.23,37.39,22,40c5.44,0,10.89.33,16.27-.13,3-.26,4.75.11,5.38,2.94Z"/><path d="M21.51,20a24.27,24.27,0,0,1-3.62,0c-3.55-.55-6.8-1.72-8.47-5.29a5.53,5.53,0,0,1-.15-1.89,5.07,5.07,0,0,1,1.89.13c3,1.47,6,3.06,9,4.59.71.36,1.48.61,2.22.91Z"/><path d="M84,28.69c-1.75,2.5-8.26,4.62-10.42,3.58a3.32,3.32,0,0,1-1.4-2c-.07-.27,1-1.14,1.55-1.24,2.48-.42,5-.72,7.5-.92A10.73,10.73,0,0,1,84,28.69Z"/><path d="M66,48.33a10.61,10.61,0,0,1,2.52,1.26c2.07,1.88,4.06,3.85,6,5.89.43.46.39,1.35.56,2.05-.64.1-1.43.5-1.88.26a17.53,17.53,0,0,1-7.86-8.54Z"/><path d="M27.56,0a18.14,18.14,0,0,1,2.23,2.68c1,1.92,1.88,3.92,2.72,5.92a5.8,5.8,0,0,1,.1,1.83c-.69,0-1.82.21-2-.1-1.46-2.53-2.8-5.14-4-7.8C26.4,2.09,27.05,1.26,27.56,0Z"/><path d="M51.37,67.92,49.44,70.6a10.26,10.26,0,0,1-1.69-2.14A45.69,45.69,0,0,1,45.9,63a5.51,5.51,0,0,1,.17-1.91c.7.16,1.79.08,2,.51C49.3,63.57,50.25,65.68,51.37,67.92Z"/><path d="M3.53,38.6c1.32.64,3.72,1.22,3.76,1.93.12,2.3-2.33,1.63-3.73,2.14a2.35,2.35,0,0,1-2-.17A11.61,11.61,0,0,1,0,40c.74-.26,1.48-.56,2.23-.77a4,4,0,0,1,1,0C3.36,39,3.45,38.8,3.53,38.6Z"/></g></g></svg>