<svg xmlns="http://www.w3.org/2000/svg" viewBox="0 0 314.04 473.25"><defs><style>.cls-1{fill:#f2673a;}</style></defs><title>qu</title><g id="Слой_2" data-name="Слой 2"><g id="Layer_1" data-name="Layer 1"><path class="cls-1" d="M188.67,362.88c-13.25-1.34-27.82-2.76-42.37-4.33a47.81,47.81,0,0,1-6.75-1.74c-3.49-.93-5.17-3.13-5.44-6.81-2.3-32.13,3-62.35,22.14-89.15,9.88-13.82,19.95-27.51,29.48-41.57,9.21-13.58,17.13-28,18.78-44.66.93-9.31,1-19.14-1-28.21-4.69-21.83-23.5-35.39-47.67-36.84-39.79-2.38-57.28,40-44,67.87,3.36,7.05,6.64,14.16,9.57,21.39a22,22,0,0,1,1.94,9.66c-.21,2.61-1.77,6.37-3.82,7.37-30,14.53-61.26,23.19-95.06,17.63-3.64-.59-6.23-2-7.71-5.86C4.68,195.45-1.88,162.3.48,127.86,2.75,94.62,18.31,67.54,42.07,45,76.43,12.5,118-1.27,164.8.09,189.91.82,214.53,4.64,238,14c49.43,19.73,75.77,59,76,112.76.18,36.58-8.78,70.48-29.3,101.05-2.88,4.28-5.53,8.74-8.61,12.87a223.84,223.84,0,0,0-40,87.38c-1.94,8.92-5,17.59-7.53,26.38-1.25,4.38-3.75,6.3-8.65,6.4C210,361.06,200.06,362.09,188.67,362.88ZM153,341.77l20.71,2.63c-3.25-5.77-5.63-10.25-8.25-14.58-1.69-2.78-1.12-4.54,1.66-6s4.66-1,5.95,1.94c1.47,3.35,3.15,6.61,4.58,10C182,346,182,346.05,193.24,344.45c.25,0,.47-.36,1.4-1.1-5.58-10.57-11.16-21.31-16.9-32-2.89-5.35-2.72-7.11,1.93-11.44.43.73.87,1.42,1.25,2.14,6.74,13,13.43,26,20.25,39,2,3.81,5.49,4.59,9.67,2.75,4.56-2,1.53-4.88.54-7-6.84-14.61-13.91-29.12-20.91-43.66-2.73-5.67-1.95-9.75,3.26-14.81l22.07,50.86c1.92-4.75,3.28-8.69,5.09-12.41,1.68-3.47,1.4-6.37-.34-9.85-6.09-12.2-11.81-24.59-17.65-36.92-3.19-6.75-2.78-8.35,3.49-13.54,7,15.14,13.88,30.2,21.27,46.26,4.79-9.6,7.48-17.42,2.23-26.67-5.82-10.24-10.26-21.26-15.37-31.91-2.43-5-1.2-8.71,4.65-12L237.64,275c3-4.51,4.64-9.12,6.47-13.66a13.23,13.23,0,0,0-.42-11.48c-4.57-9.43-8.72-19.06-13.09-28.59-2.86-6.22-2.39-8.13,3.66-12.64,5.55,12.95,11.07,25.8,16.9,39.39,2.07-3.36,3.44-6,5.24-8.38,2.65-3.46,2.54-6.59.54-10.44-5.83-11.22-11.26-22.65-16.87-34-3.2-6.48-2.86-8.36,3.43-14.42l20.84,44.58c3-4.05,5.63-7.64,8.36-11.11,2.34-3,2.51-5.71.54-9.08-7.45-12.8-14.5-25.84-22.08-38.56-2.79-4.67-1.68-8,2.31-12.17l25.42,47.25c2.18-4.76,3.66-8.63,5.67-12.21,1.8-3.2,1.23-5.68-.57-8.68-7.9-13.12-15.54-26.39-23.31-39.6-3.2-5.45-2.67-7.24,4.22-10.75l24.67,44.81c.88-3.2,1.31-5.33,2.05-7.34,2.55-6.91,1.67-13.08-2.59-19.29-6.87-10-13-20.52-19.81-30.6-2.14-3.19-2.23-5.17,1-7.37,3.42-2.35,5.28-.41,6.78,2.27,5.12,9.14,10.13,18.35,15.2,27.52,1,1.79,2,3.55,3.05,5.32,1.25-15.63,2.83-31.06-9.84-43.13-2.76-2.62-4.71-6.07-7.43-8.74-3.37-3.3-2.78-6.25-.09-9.81l9.45,5c-10.4-32.94-39.69-60.64-72.14-68.55-24.6-6-49.44-5.33-74.5-3.19-38.27,3.27-69.3,19.45-93.72,49C27,90.53,14.93,117.21,17.5,149.3,19.15,170,23.77,190,30.25,209.71c1.83,5.57,5,7.46,10.31,8,21.71,2.37,42.39-2,62.67-9.18a18.76,18.76,0,0,0,3.15-1.92c-1.95-3.39-3.8-6.51-5.57-9.68-10.54-19-14.1-38.88-8.54-60.2,8-30.89,40.57-51.71,71.38-45.45C204,99.51,231,143.65,220.59,184.4c-4.33,16.88-13.3,31.53-22.67,45.9s-19.31,28-28.35,42.34C156.42,293.53,153.88,317.13,153,341.77Z"/><path class="cls-1" d="M168.81,473.15c-11.45.48-22.65-.61-33-5.95-12.92-6.64-20-17.17-20.57-31.83-.62-15,6.11-25.9,18.85-33.27,21.68-12.56,54.68-9.91,73.42,5.85,10.55,8.86,15.94,20.34,16.39,34,.33,9.88-5,16.62-13.18,21.36-10,5.81-21.12,7.87-32.41,9.16C175.14,472.85,172,472.94,168.81,473.15ZM165,457.69c14.23-.27,24.41-2.32,31.16-6,6.4-3.46,10.74-8.71,9.51-16-.93-5.5-3-11.47-6.45-15.76-13.26-16.61-43.58-17.76-58.79-2.83-9.23,9-9.71,20.58-1.16,30.25A29.54,29.54,0,0,0,165,457.69Z"/><path class="cls-1" d="M49.23,101.38c4.18,2.8,5.63,5.51,2.82,10.08-8.22,13.41-8.77,28.28-7.38,43.4.38,4.14.69,8.3,1.43,12.37.83,4.55-2,5.58-5.34,6-3.47.41-8.15,1.77-8.93-3.4-3.41-22.62-2.51-44.51,12.65-63.48.83-1,1.68-2.06,2.58-3C47.61,102.7,48.28,102.21,49.23,101.38Z"/><path class="cls-1" d="M162.89,419.65c-7.65,6.65-11.42,14.28-7,23.83-8.64,3.6-13,.82-12.84-7.59.09-6.39,1.79-12.19,6.87-16.47C154.39,415.62,158,415.61,162.89,419.65Z"/></g></g></svg>